<?xml version="1.0" encoding="utf-8"?>
<!-- Generator: Adobe Illustrator 17.1.0, SVG Export Plug-In . SVG Version: 6.00 Build 0)  -->
<!DOCTYPE svg PUBLIC "-//W3C//DTD SVG 1.1//EN" "http://www.w3.org/Graphics/SVG/1.1/DTD/svg11.dtd">
<svg version="1.1" id="Layer_1" xmlns="http://www.w3.org/2000/svg" xmlns:xlink="http://www.w3.org/1999/xlink" x="0px" y="0px"
	 viewBox="0 0 100 100" enable-background="new 0 0 100 100" xml:space="preserve">
<g>
	<g>
		<path fill="#B70D4D" d="M85.2,14.8c-9.9-9.9-25.4-9.9-35.2,0l0,0l0,0c-0.7,0.7-0.7,1.4,0,2.1l0,0c8.4,9.2,8.4,23.2,0,32.4l0,0l0,0
			c9.2-8.4,23.2-8.4,32.4,0l0,0l0,0c0.7,0.7,1.4,0,1.4,0l0,0l0,0C95.1,40.1,95.1,23.9,85.2,14.8z"/>
		<path fill="#E35E06" d="M85.2,50L85.2,50L85.2,50L85.2,50z"/>
	</g>
	<g>
		<g>
			<path fill="#AE0F0A" d="M14.8,85.2c9.9,9.9,25.4,9.9,35.2,0l0,0l0,0c0.7-0.7,0.7-1.4,0-1.4l0,0c-8.4-9.2-8.4-23.2,0-32.4l0,0l0,0
				c-9.2,7.8-23.2,7.8-32.4,0l0,0l0,0c-0.7,0-1.4,0-2.1,0l0,0l0,0C4.9,59.9,4.9,75.4,14.8,85.2z"/>
			<path fill="#E35E06" d="M14.8,50L14.8,50L14.8,50L14.8,50z"/>
		</g>
		<g>
			<path fill="#AE0F0A" d="M84.5,85.2c9.9-9.9,9.9-25.4,0-35.2l0,0l0,0c-0.7-0.7-1.4-0.7-1.4,0l0,0c-9.2,8.4-23.2,8.4-32.4,0l0,0
				l0,0c8.4,9.2,7.8,23.2,0,32.4l0,0l0,0c-0.7,0.7,0,1.4,0,1.4l0,0l0,0C59.2,95.1,74.6,95.1,84.5,85.2z"/>
			<path fill="#E30613" d="M49.3,85.2L49.3,85.2L49.3,85.2L49.3,85.2z"/>
		</g>
		<g>
			<path fill="#D2014B" d="M15.5,14.8c-9.9,9.9-9.9,25.4,0,35.2l0,0l0,0c0.7,0.7,1.4,0.7,1.4,0l0,0c9.2-8.4,23.2-8.4,32.4,0l0,0l0,0
				c-7-9.9-7-23.9,1.4-33.1l0,0l0,0c0-0.7,0-1.4,0-1.4l0,0l0,0C40.8,4.9,24.6,4.9,15.5,14.8z"/>
			<path fill="#E30613" d="M50.7,14.8L50.7,14.8L50.7,14.8L50.7,14.8z"/>
		</g>
	</g>
	<g>
		<path fill="#AE0F0A" d="M74.6,25.4L74.6,25.4L74.6,25.4L74.6,25.4z"/>
		<path fill="#E30613" d="M50,0C35.9,0,25.4,11.3,25.4,24.6l0,0l0,0c0,0.7,0.7,1.4,1.4,1.4c0,0,0,0,0.7,0
			c12,1.4,21.8,11.3,22.5,23.2l0,0l0,0c0.7-12.7,10.6-21.8,23.2-23.2l0,0l0,0c0.7,0,1.4-0.7,1.4-1.4l0,0l0,0C74.6,11.3,63.4,0,50,0z
			"/>
	</g>
	<g>
		<path fill="#AE0F0A" d="M25.4,74.6L25.4,74.6L25.4,74.6L25.4,74.6z"/>
		<path fill="#E30613" d="M50,100c13.4,0,24.6-11.3,24.6-24.6l0,0l0,0c0-0.7-0.7-1.4-1.4-1.4c0,0,0,0-0.7,0
			C59.9,73.2,50,63.4,49.3,50.7l0,0l0,0c-0.7,12-10.6,21.8-23.2,23.2l0,0l0,0c-0.7,0-1.4,0.7-1.4,1.4l0,0l0,0
			C25.4,88.7,35.9,100,50,100z"/>
	</g>
	<g>
		<path fill="#E30613" d="M74.6,75.4C74.6,75.4,73.9,75.4,74.6,75.4C73.9,75.4,73.9,75.4,74.6,75.4L74.6,75.4z"/>
		<path fill="#E35E06" d="M99.3,50.7c0-13.4-11.3-24.6-24.6-24.6l0,0l0,0c-0.7,0-1.4,0.7-1.4,1.4c0,0,0,0,0,0.7
			C71.8,39.4,62,49.3,50,50l0,0l0,0c12,0.7,21.8,10.6,23.2,23.2l0,0l0,0c0,0.7,0.7,1.4,1.4,1.4l0,0l0,0C88,75.4,99.3,64.1,99.3,50.7
			z"/>
	</g>
	<g>
		<path fill="#E30613" d="M25.4,24.6L25.4,24.6L25.4,24.6L25.4,24.6z"/>
		<path fill="#E35E06" d="M0.7,49.3c0,13.4,11.3,24.6,24.6,24.6l0,0l0,0c0.7,0,1.4-0.7,1.4-1.4c0,0,0,0,0-0.7
			C27.4,59.9,37.3,50,50,49.3l0,0l0,0c-12.7-0.7-22.5-10.6-23.2-23.2l0,0l0,0c0-0.7-0.7-1.4-1.4-1.4l0,0l0,0
			C11.3,24.6,0.7,35.9,0.7,49.3z"/>
	</g>
	<circle cx="50" cy="50" r="5.6"/>
	<path d="M53.5,53.5c-2.1,2.1-5.6,2.1-7.7,0c-2.1-2.1-2.1-5.6,0-7.8c2.1-2.1,5.6-2.1,7.7,0C55.6,47.9,55.6,51.4,53.5,53.5z"/>
</g>
</svg>
