<?xml version="1.0" encoding="utf-8"?>
<!-- Generator: Adobe Illustrator 17.1.0, SVG Export Plug-In . SVG Version: 6.00 Build 0)  -->
<!DOCTYPE svg PUBLIC "-//W3C//DTD SVG 1.1//EN" "http://www.w3.org/Graphics/SVG/1.1/DTD/svg11.dtd">
<svg version="1.1" id="Layer_1" xmlns="http://www.w3.org/2000/svg" xmlns:xlink="http://www.w3.org/1999/xlink" x="0px" y="0px"
	 viewBox="0 0 100 100" enable-background="new 0 0 100 100" xml:space="preserve">
<symbol  id="ASIA" viewBox="-8.7 -8.8 17.4 17.5">
	<g>
		<path fill="#D2024B" d="M4.3,4.4C4.3,4.4,4.3,4.4,4.3,4.4C4.3,4.4,4.3,4.4,4.3,4.4L4.3,4.4z"/>
		<path fill="#D2024B" d="M0,8.8c-2.4,0-4.4-1.9-4.4-4.4c0,0,0,0,0,0c0,0,0,0,0,0c0-0.1,0.1-0.2,0.2-0.2c0,0,0,0,0.1,0
			C-1.9,4-0.2,2.2,0,0.1c0,0,0,0,0,0c0,0,0,0,0,0c0.1,2.2,1.9,3.9,4.1,4c0,0,0,0,0,0c0,0,0,0,0.1,0c0.1,0,0.2,0.1,0.2,0.2
			c0,0,0,0,0,0c0,0,0,0,0,0C4.3,6.8,2.4,8.8,0,8.8z"/>
	</g>
	<g>
		<path fill="#D2024B" d="M-4.4-4.4C-4.4-4.4-4.4-4.4-4.4-4.4C-4.4-4.4-4.4-4.4-4.4-4.4C-4.4-4.4-4.4-4.4-4.4-4.4z"/>
		<path fill="#D2024B" d="M0-8.8c2.4,0,4.3,2,4.3,4.4c0,0,0,0,0,0c0,0,0,0,0,0c0,0.1-0.1,0.2-0.2,0.2c0,0-0.1,0-0.1,0
			C1.9-4,0.1-2.2,0-0.1c0,0,0,0,0,0c0,0,0,0,0,0c-0.2-2.2-1.9-3.9-4.1-4c0,0,0,0,0,0c0,0,0,0-0.1,0c-0.1,0-0.2-0.1-0.2-0.2
			c0,0,0,0,0,0c0,0,0,0,0,0C-4.4-6.8-2.4-8.8,0-8.8z"/>
	</g>
	<g>
		<path fill="#D2024B" d="M4.3-4.4C4.3-4.4,4.3-4.4,4.3-4.4C4.3-4.4,4.3-4.4,4.3-4.4C4.3-4.4,4.3-4.4,4.3-4.4z"/>
		<path fill="#D2024B" d="M8.7-0.1c0,2.4-1.9,4.3-4.4,4.3c0,0,0,0,0,0c0,0,0,0,0,0C4.2,4.3,4.1,4.2,4,4.1C4,4,4,4,4,4
			C3.9,1.8,2.2,0.1,0-0.1c0,0,0,0,0,0l0,0C2.2-0.2,3.9-2,4-4.2c0,0,0,0,0,0c0,0,0,0,0-0.1c0-0.1,0.1-0.2,0.2-0.2c0,0,0,0,0,0
			c0,0,0,0,0,0C6.8-4.4,8.7-2.5,8.7-0.1z"/>
	</g>
	<g>
		<path fill="#D2024B" d="M-4.3,4.4C-4.3,4.4-4.3,4.4-4.3,4.4C-4.3,4.4-4.3,4.4-4.3,4.4C-4.3,4.4-4.3,4.4-4.3,4.4z"/>
		<path fill="#D2024B" d="M-8.7,0.1c0-2.4,2-4.3,4.3-4.3c0,0,0,0,0.1,0c0,0,0,0,0,0c0.1,0,0.2,0.1,0.2,0.2C-4-4-4-4-4-4
			c0.1,2.2,1.9,3.9,4,4.1c0,0,0,0,0,0c0,0,0,0,0,0C-2.2,0.2-3.9,2-4,4.2c0,0,0,0,0,0c0,0,0,0,0,0.1c0,0.1-0.1,0.2-0.2,0.2
			c0,0,0,0,0,0c0,0,0,0-0.1,0C-6.7,4.4-8.7,2.5-8.7,0.1z"/>
	</g>
	<path fill="#0A0B09" d="M1,0c0-0.5-0.4-1-1-1c-0.5,0-1,0.4-1,1c0,0.5,0.4,1,1,1C0.5,1,1,0.5,1,0z"/>
</symbol>
<use xlink:href="#ASIA"  width="17.4" height="17.5" id="XMLID_1_" x="-8.7" y="-8.8" transform="matrix(5.695 0 0 -5.695 50.0206 50.0467)" overflow="visible"/>
</svg>
